{"title":"August, Osage County 2013 DVD9rip English Klam","uid":10850890,"size":1894421891,"categoryP":"video","categoryS":"movies","magnet":"?xt=urn:btih:8188b2e11de24a1b5b27ddc8e4783eb5318306ea&amp;dn=August%2C+Osage+County+2013+DVD9rip+English+Klam&amp;tr=udp%3A%2F%2Ftracker.openbittorrent.com%3A80&amp;tr=udp%3A%2F%2Fopen.demonii.com%3A1337&amp;tr=udp%3A%2F%2Ftracker.coppersurfer.tk%3A6969&amp;tr=udp%3A%2F%2Fexodus.desync.com%3A6969","seeders":2,"leechers":0,"uploader":"Klambake","files":-1,"time":1408808616,"description":"With: Meryl Streep, Julia Roberts and Julianne Nicholson\n\nBeverly Weston is de aan drank verslaafde vader van een gezin. Nadat hij is verdwenen komt de familie bij elkaar om moeder Violet (Meryl Streep) en dochter Ivy (Julianne Nicholson) te steunen. Hierbij komt allerlei oud en nieuw zeer tussen de familieleden bovendrijven.\n\nA look at the lives of the strong-willed women of the Weston family, whose paths have diverged until a family crisis brings them back to the Oklahoma house they grew up in, and to the dysfunctional woman who raised them.\n &lt;a href=&quot;\nhttp://www.imdb.com/title/tt1322269&quot; rel=&quot;nofollow&quot; target=&quot;_NEW&quot;&gt;\nhttp://www.imdb.com/title/tt1322269&lt;/a&gt;\t\n\n--------------------- Dutch Friends 4ever ---------------------\n---------------------------------------------------------------\n- Bezoek ook eens mijn vrienden op: &lt;a href=&quot; http://www.Film-Test.nl&quot; rel=&quot;nofollow&quot; target=&quot;_NEW&quot;&gt; http://www.Film-Test.nl&lt;/a&gt; --\n----- voor mijn Nederlandse Sync. ondertitels ---- en meer ----\n------- http://www.Film-Test.nl ---- Over Films en meer -------\n---------------------------------------------------------------\n &lt;a href=&quot;\nhttp://i.imgur.com/yrWZeJ3.jpg&quot; rel=&quot;nofollow&quot; target=&quot;_NEW&quot;&gt;\nhttp://i.imgur.com/yrWZeJ3.jpg&lt;/a&gt; &lt;a href=&quot;\nhttp://i.imgur.com/wHCTACN.jpg&quot; rel=&quot;nofollow&quot; target=&quot;_NEW&quot;&gt;\nhttp://i.imgur.com/wHCTACN.jpg&lt;/a&gt; &lt;a href=&quot;\nhttp://i.imgur.com/bNDDQGf.jpg&quot; rel=&quot;nofollow&quot; target=&quot;_NEW&quot;&gt;\nhttp://i.imgur.com/bNDDQGf.jpg&lt;/a&gt;\n\nGeneral:\n\nComplete name                            : August, Osage CountyAugust, Osage County.avi\nFormat                                   : AVI\nFormat/Info                              : Audio Video Interleave\nFile size                                : 1.76 GiB\nDuration                                 : 1h 55mn\nOverall bit rate                         : 2 178 Kbps\n\nVideo:\n\nFormat                                   : MPEG-4 Visual\nFormat profile                           : Simple@L3\nFormat settings, BVOP                    : No\nFormat settings, QPel                    : No\nFormat settings, GMC                     : No warppoints\nFormat settings, Matrix                  : Default (H.263)\nCodec ID                                 : XVID\nCodec ID/Hint                            : XviD\nDuration                                 : 1h 55mn\nSource duration                          : 1h 55mn\nBit rate                                 : 1 719 Kbps\nWidth                                    : 720 pixels\nHeight                                   : 304 pixels\nDisplay aspect ratio                     : 2.35:1\nFrame rate                               : 25.000 fps\nColor space                              : YUV\nChroma subsampling                       : 4:2:0\nBit depth                                : 8 bits\nScan type                                : Progressive\nCompression mode                         : Lossy\nBits/(Pixel*Frame)                       : 0.314\nStream size                              : 1.39 GiB (79%)\nWriting library                          : XviD 1.1.2 (UTC 2006-11-01)\n\nAudio:\n\nFormat                                   : AC-3\nFormat/Info                              : Audio Coding 3\nMode extension                           : CM (complete main)\nFormat settings, Endianness              : Big\nCodec ID                                 : 2000\nDuration                                 : 1h 55mn\nBit rate mode                            : Constant\nBit rate                                 : 448 Kbps\nChannel(s)                               : 6 channels\nChannel positions                        : Front: L C R, Side: L R, LFE\nSampling rate                            : 48.0 KHz\nBit depth                                : 16 bits\nCompression mode                         : Lossy\nStream size                              : 372 MiB (21%)\nAlignment                                : Aligned on interleaves\nInterleave, duration                     : 32 ms (0.80 video frame)\nInterleave, preload duration             : 224 ms\n","torrent":{"xt":"urn:btih:8188b2e11de24a1b5b27ddc8e4783eb5318306ea","amp;dn":"August%2C+Osage+County+2013+DVD9rip+English+Klam","amp;tr":["udp%3A%2F%2Ftracker.openbittorrent.com%3A80","udp%3A%2F%2Fopen.demonii.com%3A1337","udp%3A%2F%2Ftracker.coppersurfer.tk%3A6969","udp%3A%2F%2Fexodus.desync.com%3A6969"],"infoHash":"8188b2e11de24a1b5b27ddc8e4783eb5318306ea","infoHashBuffer":{"type":"Buffer","data":[129,136,178,225,29,226,74,27,91,39,221,200,228,120,62,181,49,131,6,234]},"announce":[],"urlList":[]}}